<svg xmlns="http://www.w3.org/2000/svg" viewBox="0 0 100 70" width="100" height="70">
  <!-- Kulit Pisang Realistis -->
  <defs>
    <linearGradient id="bananaGrad" x1="0%" y1="0%" x2="0%" y2="100%">
      <stop offset="0%" style="stop-color:#FFE082" />
      <stop offset="50%" style="stop-color:#FDD835" />
      <stop offset="100%" style="stop-color:#F9A825" />
    </linearGradient>
    <linearGradient id="bananaInner" x1="0%" y1="0%" x2="0%" y2="100%">
      <stop offset="0%" style="stop-color:#FFFDE7" />
      <stop offset="100%" style="stop-color:#FFF9C4" />
    </linearGradient>
  </defs>
  <!-- Kulit pisang terbuka -->
  <path d="M10 40 Q5 35 8 28 L15 15 Q20 8 30 10 L45 12 Q55 10 60 15 L75 20 Q85 25 88 35 L90 45 Q88 52 80 55 L70 58 Q55 62 40 60 L25 58 Q12 55 10 45 Z" 
        fill="url(#bananaGrad)" stroke="#F9A825" stroke-width="1"/>
  <!-- Bagian dalam -->
  <ellipse cx="50" cy="40" rx="25" ry="12" fill="url(#bananaInner)"/>
  <!-- Bintik coklat -->
  <circle cx="25" cy="35" r="3" fill="#8D6E63" opacity="0.6"/>
  <circle cx="65" cy="38" r="2.5" fill="#8D6E63" opacity="0.5"/>
  <circle cx="40" cy="30" r="2" fill="#8D6E63" opacity="0.4"/>
  <circle cx="75" cy="42" r="2" fill="#8D6E63" opacity="0.5"/>
  <!-- Ujung pisang -->
  <ellipse cx="15" cy="42" rx="6" ry="4" fill="#5D4037"/>
</svg>

