<svg xmlns="http://www.w3.org/2000/svg" viewBox="0 0 90 70" width="90" height="70">
  <!-- Daun Kering Realistis -->
  <defs>
    <linearGradient id="leafGrad" x1="0%" y1="0%" x2="100%" y2="100%">
      <stop offset="0%" style="stop-color:#A1887F" />
      <stop offset="30%" style="stop-color:#8D6E63" />
      <stop offset="70%" style="stop-color:#6D4C41" />
      <stop offset="100%" style="stop-color:#5D4037" />
    </linearGradient>
  </defs>
  <!-- Daun utama -->
  <path d="M10 50 Q5 40 15 25 Q25 10 45 8 Q65 6 78 15 Q88 25 85 40 Q80 55 65 60 Q50 65 35 62 Q18 58 10 50 Z" 
        fill="url(#leafGrad)" stroke="#5D4037" stroke-width="1"/>
  <!-- Urat daun utama -->
  <path d="M78 15 Q55 30 35 62" stroke="#4E342E" stroke-width="2" fill="none"/>
  <!-- Urat daun samping -->
  <path d="M65 18 Q55 25 50 35" stroke="#4E342E" stroke-width="1" fill="none"/>
  <path d="M72 28 Q60 35 55 45" stroke="#4E342E" stroke-width="1" fill="none"/>
  <path d="M55 40 Q45 48 40 55" stroke="#4E342E" stroke-width="1" fill="none"/>
  <path d="M25 35 Q35 40 42 50" stroke="#4E342E" stroke-width="1" fill="none"/>
  <!-- Lubang/kerusakan daun kering -->
  <ellipse cx="30" cy="40" rx="5" ry="4" fill="#3E2723" opacity="0.3"/>
  <ellipse cx="60" cy="35" rx="4" ry="3" fill="#3E2723" opacity="0.25"/>
</svg>

